<svg width="50" height="50" viewBox="0 0 50 50" fill="none" xmlns="http://www.w3.org/2000/svg">
<path d="M41.6667 0C43.8768 0 45.9964 0.877974 47.5592 2.44078C49.122 4.00358 50 6.1232 50 8.33333V41.6667C50 43.8768 49.122 45.9964 47.5592 47.5592C45.9964 49.122 43.8768 50 41.6667 50H8.33333C6.1232 50 4.00358 49.122 2.44078 47.5592C0.877974 45.9964 0 43.8768 0 41.6667V8.33333C0 6.1232 0.877974 4.00358 2.44078 2.44078C4.00358 0.877974 6.1232 0 8.33333 0L41.6667 0ZM18.6458 19.5833H12.8333V36.4583H18.6667V19.5833H18.6458ZM32.8958 19.1875C30.1458 19.1875 28.7292 20.5 27.9375 21.6042L27.6667 21.9792V19.5833H21.8542L21.875 20.6042V36.4583H27.6667V27.0417C27.6321 26.6053 27.6884 26.1665 27.832 25.7529C27.9756 25.3394 28.2033 24.9601 28.5009 24.6391C28.7985 24.318 29.1594 24.0621 29.5608 23.8876C29.9623 23.713 30.3956 23.6236 30.8333 23.625C32.8333 23.625 33.6875 25 33.7708 27.0833V36.4583H39.5833V26.7917C39.5833 21.6042 36.7292 19.1875 32.9167 19.1875H32.8958ZM15.7917 11.4583C13.7917 11.4583 12.5 12.7083 12.5 14.375C12.5 15.8958 13.625 17.125 15.375 17.2917H15.75C17.7708 17.2917 19.0208 16 19.0208 14.375C19 12.7083 17.7708 11.4583 15.7917 11.4583Z" fill="#FFF2E4"/>
</svg>
